<svg width="440" height="36" viewBox="0 0 440 36" fill="none" xmlns="http://www.w3.org/2000/svg">
<path d="M10.032 10.184H0.192V1.4H31.2V10.184H21.36V35H10.032V10.184ZM62.0783 26.456V35H34.1423V1.4H61.4543V9.944H45.2783V13.88H59.4863V22.04H45.2783V26.456H62.0783ZM83.8151 35.768C80.2631 35.768 77.0631 35.032 74.2151 33.56C71.3671 32.056 69.1271 29.976 67.4951 27.32C65.8951 24.632 65.0951 21.592 65.0951 18.2C65.0951 14.808 65.8951 11.784 67.4951 9.128C69.1271 6.44 71.3671 4.36 74.2151 2.888C77.0631 1.384 80.2631 0.631999 83.8151 0.631999C87.0791 0.631999 89.9911 1.208 92.5511 2.36C95.1111 3.512 97.2231 5.176 98.8871 7.352L91.7351 13.736C89.6551 11.112 87.2071 9.8 84.3911 9.8C82.0231 9.8 80.1191 10.568 78.6791 12.104C77.2391 13.608 76.5191 15.64 76.5191 18.2C76.5191 20.76 77.2391 22.808 78.6791 24.344C80.1191 25.848 82.0231 26.6 84.3911 26.6C87.2071 26.6 89.6551 25.288 91.7351 22.664L98.8871 29.048C97.2231 31.224 95.1111 32.888 92.5511 34.04C89.9911 35.192 87.0791 35.768 83.8151 35.768ZM135.278 1.4V35H123.95V22.616H113.486V35H102.158V1.4H113.486V13.304H123.95V1.4H135.278Z" fill="url(#paint0_linear_450_19625)"/>
<path d="M171.303 1.4C174.407 1.4 177.111 1.912 179.415 2.936C181.719 3.96 183.495 5.432 184.743 7.352C185.991 9.272 186.615 11.512 186.615 14.072C186.615 16.632 185.991 18.872 184.743 20.792C183.495 22.712 181.719 24.184 179.415 25.208C177.111 26.232 174.407 26.744 171.303 26.744H166.455V35H155.127V1.4H171.303ZM170.583 18.008C172.119 18.008 173.271 17.672 174.039 17C174.807 16.296 175.191 15.32 175.191 14.072C175.191 12.824 174.807 11.864 174.039 11.192C173.271 10.488 172.119 10.136 170.583 10.136H166.455V18.008H170.583ZM204.73 26.552H201.658V35H190.33V1.4H206.506C209.61 1.4 212.314 1.912 214.618 2.936C216.922 3.96 218.698 5.432 219.946 7.352C221.194 9.272 221.818 11.512 221.818 14.072C221.818 16.472 221.274 18.568 220.186 20.36C219.098 22.152 217.53 23.576 215.482 24.632L222.538 35H210.442L204.73 26.552ZM210.394 14.072C210.394 12.824 210.01 11.864 209.242 11.192C208.474 10.488 207.322 10.136 205.786 10.136H201.658V18.008H205.786C207.322 18.008 208.474 17.672 209.242 17C210.01 16.296 210.394 15.32 210.394 14.072ZM243.711 35.768C240.095 35.768 236.847 35.016 233.967 33.512C231.087 32.008 228.831 29.928 227.199 27.272C225.567 24.584 224.751 21.56 224.751 18.2C224.751 14.84 225.567 11.832 227.199 9.176C228.831 6.488 231.087 4.392 233.967 2.888C236.847 1.384 240.095 0.631999 243.711 0.631999C247.327 0.631999 250.575 1.384 253.455 2.888C256.335 4.392 258.591 6.488 260.223 9.176C261.855 11.832 262.671 14.84 262.671 18.2C262.671 21.56 261.855 24.584 260.223 27.272C258.591 29.928 256.335 32.008 253.455 33.512C250.575 35.016 247.327 35.768 243.711 35.768ZM243.711 26.6C245.119 26.6 246.383 26.264 247.503 25.592C248.655 24.888 249.567 23.912 250.239 22.664C250.911 21.384 251.247 19.896 251.247 18.2C251.247 16.504 250.911 15.032 250.239 13.784C249.567 12.504 248.655 11.528 247.503 10.856C246.383 10.152 245.119 9.8 243.711 9.8C242.303 9.8 241.023 10.152 239.871 10.856C238.751 11.528 237.855 12.504 237.183 13.784C236.511 15.032 236.175 16.504 236.175 18.2C236.175 19.896 236.511 21.384 237.183 22.664C237.855 23.912 238.751 24.888 239.871 25.592C241.023 26.264 242.303 26.6 243.711 26.6ZM266.783 1.4H283.343C287.087 1.4 290.383 2.088 293.231 3.464C296.111 4.808 298.335 6.744 299.903 9.272C301.503 11.8 302.303 14.776 302.303 18.2C302.303 21.624 301.503 24.6 299.903 27.128C298.335 29.656 296.111 31.608 293.231 32.984C290.383 34.328 287.087 35 283.343 35H266.783V1.4ZM282.863 26.168C285.295 26.168 287.231 25.48 288.671 24.104C290.143 22.696 290.879 20.728 290.879 18.2C290.879 15.672 290.143 13.72 288.671 12.344C287.231 10.936 285.295 10.232 282.863 10.232H278.111V26.168H282.863ZM322.519 35.768C317.367 35.768 313.351 34.376 310.471 31.592C307.591 28.808 306.151 24.904 306.151 19.88V1.4H317.479V19.544C317.479 22.008 317.911 23.8 318.775 24.92C319.671 26.04 320.951 26.6 322.615 26.6C324.279 26.6 325.543 26.04 326.407 24.92C327.303 23.8 327.751 22.008 327.751 19.544V1.4H338.887V19.88C338.887 24.904 337.447 28.808 334.567 31.592C331.687 34.376 327.671 35.768 322.519 35.768ZM361.456 35.768C357.904 35.768 354.704 35.032 351.856 33.56C349.008 32.056 346.768 29.976 345.136 27.32C343.536 24.632 342.736 21.592 342.736 18.2C342.736 14.808 343.536 11.784 345.136 9.128C346.768 6.44 349.008 4.36 351.856 2.888C354.704 1.384 357.904 0.631999 361.456 0.631999C364.72 0.631999 367.632 1.208 370.192 2.36C372.752 3.512 374.864 5.176 376.528 7.352L369.376 13.736C367.296 11.112 364.848 9.8 362.032 9.8C359.664 9.8 357.76 10.568 356.32 12.104C354.88 13.608 354.16 15.64 354.16 18.2C354.16 20.76 354.88 22.808 356.32 24.344C357.76 25.848 359.664 26.6 362.032 26.6C364.848 26.6 367.296 25.288 369.376 22.664L376.528 29.048C374.864 31.224 372.752 32.888 370.192 34.04C367.632 35.192 364.72 35.768 361.456 35.768ZM386.86 10.184H377.02V1.4H408.028V10.184H398.188V35H386.86V10.184ZM423.498 35.768C420.714 35.768 417.994 35.464 415.338 34.856C412.714 34.216 410.554 33.368 408.858 32.312L412.506 24.056C414.106 24.984 415.898 25.736 417.882 26.312C419.866 26.856 421.77 27.128 423.594 27.128C425.162 27.128 426.282 26.984 426.954 26.696C427.626 26.376 427.962 25.912 427.962 25.304C427.962 24.6 427.514 24.072 426.618 23.72C425.754 23.368 424.314 22.984 422.298 22.568C419.706 22.024 417.546 21.448 415.818 20.84C414.09 20.2 412.586 19.176 411.306 17.768C410.026 16.328 409.386 14.392 409.386 11.96C409.386 9.848 409.978 7.928 411.162 6.2C412.346 4.472 414.106 3.112 416.442 2.12C418.81 1.128 421.674 0.631999 425.034 0.631999C427.338 0.631999 429.594 0.887999 431.802 1.4C434.042 1.88 436.01 2.6 437.706 3.56L434.298 11.768C431.002 10.104 427.882 9.272 424.938 9.272C422.026 9.272 420.57 9.976 420.57 11.384C420.57 12.056 421.002 12.568 421.866 12.92C422.73 13.24 424.154 13.592 426.138 13.976C428.698 14.456 430.858 15.016 432.618 15.656C434.378 16.264 435.898 17.272 437.178 18.68C438.49 20.088 439.146 22.008 439.146 24.44C439.146 26.552 438.554 28.472 437.37 30.2C436.186 31.896 434.41 33.256 432.042 34.28C429.706 35.272 426.858 35.768 423.498 35.768Z" fill="#252F3D"/>
<defs>
<linearGradient id="paint0_linear_450_19625" x1="-81.7781" y1="-2.615" x2="-54.5794" y2="229.078" gradientUnits="userSpaceOnUse">
<stop stop-color="#176FEB"/>
<stop offset="1" stop-color="#FF80FF"/>
</linearGradient>
</defs>
</svg>
