<svg width="595" height="308" viewBox="0 0 595 308" fill="none" xmlns="http://www.w3.org/2000/svg">
<path d="M41.8 40.6H0.8V3.99999H130V40.6H89V144H41.8V40.6ZM258.659 108.4V144H142.259V3.99999H256.059V39.6H188.659V56H247.859V90H188.659V108.4H258.659ZM349.23 147.2C334.43 147.2 321.096 144.133 309.23 138C297.363 131.733 288.03 123.067 281.23 112C274.563 100.8 271.23 88.1333 271.23 74C271.23 59.8667 274.563 47.2667 281.23 36.2C288.03 25 297.363 16.3333 309.23 10.2C321.096 3.93333 334.43 0.799996 349.23 0.799996C362.83 0.799996 374.963 3.2 385.63 8C396.296 12.8 405.096 19.7333 412.03 28.8L382.23 55.4C373.563 44.4667 363.363 39 351.63 39C341.763 39 333.83 42.2 327.83 48.6C321.83 54.8667 318.83 63.3333 318.83 74C318.83 84.6667 321.83 93.2 327.83 99.6C333.83 105.867 341.763 109 351.63 109C363.363 109 373.563 103.533 382.23 92.6L412.03 119.2C405.096 128.267 396.296 135.2 385.63 140C374.963 144.8 362.83 147.2 349.23 147.2ZM563.658 3.99999V144H516.458V92.4H472.858V144H425.658V3.99999H472.858V53.6H516.458V3.99999H563.658Z" fill="url(#paint0_linear_450_19670)"/>
<path d="M135 267.4V304H6.4V275L70.4 200.6H8.4V164H131.8V193L67.8 267.4H135ZM221.128 307.2C206.061 307.2 192.528 304.067 180.528 297.8C168.528 291.533 159.128 282.867 152.328 271.8C145.528 260.6 142.128 248 142.128 234C142.128 220 145.528 207.467 152.328 196.4C159.128 185.2 168.528 176.467 180.528 170.2C192.528 163.933 206.061 160.8 221.128 160.8C236.195 160.8 249.728 163.933 261.728 170.2C273.728 176.467 283.128 185.2 289.928 196.4C296.728 207.467 300.128 220 300.128 234C300.128 248 296.728 260.6 289.928 271.8C283.128 282.867 273.728 291.533 261.728 297.8C249.728 304.067 236.195 307.2 221.128 307.2ZM221.128 269C226.995 269 232.261 267.6 236.928 264.8C241.728 261.867 245.528 257.8 248.328 252.6C251.128 247.267 252.528 241.067 252.528 234C252.528 226.933 251.128 220.8 248.328 215.6C245.528 210.267 241.728 206.2 236.928 203.4C232.261 200.467 226.995 199 221.128 199C215.261 199 209.928 200.467 205.128 203.4C200.461 206.2 196.728 210.267 193.928 215.6C191.128 220.8 189.728 226.933 189.728 234C189.728 241.067 191.128 247.267 193.928 252.6C196.728 257.8 200.461 261.867 205.128 264.8C209.928 267.6 215.261 269 221.128 269ZM455.259 164V304H416.459L363.259 240.4V304H317.259V164H356.059L409.259 227.6V164H455.259ZM594.402 268.4V304H478.002V164H591.802V199.6H524.402V216H583.602V250H524.402V268.4H594.402Z" fill="#252F3D"/>
<defs>
<linearGradient id="paint0_linear_450_19670" x1="-33.6273" y1="-21.6" x2="667.777" y2="270.156" gradientUnits="userSpaceOnUse">
<stop stop-color="#176FEB"/>
<stop offset="1" stop-color="#FF80FF"/>
</linearGradient>
</defs>
</svg>
